<svg xmlns="http://www.w3.org/2000/svg" viewBox="0 0 447.07016 396.15416"><defs><style>.a{fill:#bf7c3a;}.b{fill:#af722f;}.c{fill:#6b4822;}.d{fill:#e5a361;}.e{fill:#db8d46;}</style></defs><title>package</title><polygon class="a" points="79.273 323.003 226.38 249.856 226.38 74.883 79.273 148.031 79.273 323.003"/><polygon class="b" points="373.456 322.979 226.35 249.832 226.35 74.859 373.456 148.006 373.456 322.979"/><polygon class="a" points="226.349 396.154 79.243 323.007 79.243 148.034 226.349 221.181 226.349 396.154"/><polygon class="c" points="150.725 239.139 126.393 285.02 174.449 307.393 150.725 239.139"/><polygon class="d" points="226.391 396.154 373.497 323.007 373.497 148.034 226.391 221.181 226.391 396.154"/><polygon class="d" points="79.243 148.034 4.39 73.147 151.496 0 226.35 74.859 79.243 148.034"/><polygon class="a" points="447.07 74.392 299.964 1.245 226.35 74.859 373.497 148.034 447.07 74.392"/><polygon class="d" points="147.106 221.181 0 148.034 79.243 148.034 226.391 221.181 147.106 221.181"/><polygon class="e" points="441.523 148.743 294.417 221.89 226.391 221.181 373.497 148.034 441.523 148.743"/></svg>